<svg width="45" height="51" viewBox="0 0 45 51" fill="none" xmlns="http://www.w3.org/2000/svg">
<path d="M0.253906 13.5098V10.9531C0.253906 9.11589 0.652344 7.44466 1.44922 5.93945C2.24609 4.43424 3.44141 3.22786 5.03516 2.32031C6.62891 1.41276 8.61003 0.958984 10.9785 0.958984C13.4134 0.958984 15.4277 1.41276 17.0215 2.32031C18.6152 3.22786 19.7995 4.43424 20.5742 5.93945C21.3711 7.44466 21.7695 9.11589 21.7695 10.9531V13.5098C21.7695 15.3027 21.3711 16.9518 20.5742 18.457C19.7995 19.9622 18.6152 21.1686 17.0215 22.0762C15.4499 22.9837 13.4688 23.4375 11.0781 23.4375C8.66536 23.4375 6.66211 22.9837 5.06836 22.0762C3.47461 21.1686 2.26823 19.9622 1.44922 18.457C0.652344 16.9518 0.253906 15.3027 0.253906 13.5098ZM7.42578 10.9531V13.5098C7.42578 14.1738 7.55859 14.8047 7.82422 15.4023C8.08984 16 8.48828 16.487 9.01953 16.8633C9.57292 17.2174 10.248 17.3945 11.0449 17.3945C11.8639 17.3945 12.528 17.2174 13.0371 16.8633C13.5462 16.487 13.9225 16 14.166 15.4023C14.4316 14.8047 14.5645 14.1738 14.5645 13.5098V10.9531C14.5645 10.2448 14.4316 9.5918 14.166 8.99414C13.9225 8.39648 13.5352 7.92057 13.0039 7.56641C12.4727 7.1901 11.7975 7.00195 10.9785 7.00195C10.2038 7.00195 9.55078 7.1901 9.01953 7.56641C8.48828 7.92057 8.08984 8.39648 7.82422 8.99414C7.55859 9.5918 7.42578 10.2448 7.42578 10.9531ZM23.1973 40.7031V38.1465C23.1973 36.3314 23.5957 34.6712 24.3926 33.166C25.2116 31.6608 26.418 30.4544 28.0117 29.5469C29.6276 28.6393 31.6198 28.1855 33.9883 28.1855C36.4232 28.1855 38.4264 28.6393 39.998 29.5469C41.5918 30.4544 42.776 31.6608 43.5508 33.166C44.3477 34.6712 44.7461 36.3314 44.7461 38.1465V40.7031C44.7461 42.5182 44.3477 44.1784 43.5508 45.6836C42.776 47.1888 41.6029 48.3952 40.0312 49.3027C38.4596 50.2103 36.4785 50.6641 34.0879 50.6641C31.6751 50.6641 29.6608 50.2103 28.0449 49.3027C26.429 48.3952 25.2116 47.1888 24.3926 45.6836C23.5957 44.1784 23.1973 42.5182 23.1973 40.7031ZM30.4023 38.1465V40.7031C30.4023 41.3893 30.5684 42.0312 30.9004 42.6289C31.2324 43.2266 31.6751 43.7135 32.2285 44.0898C32.7819 44.444 33.3906 44.6211 34.0547 44.6211C35.0729 44.6211 35.8255 44.444 36.3125 44.0898C36.8216 43.7135 37.1536 43.2266 37.3086 42.6289C37.4857 42.0312 37.5742 41.3893 37.5742 40.7031V38.1465C37.5742 37.4603 37.4414 36.8184 37.1758 36.2207C36.9102 35.623 36.5117 35.1471 35.9805 34.793C35.4492 34.4167 34.7852 34.2285 33.9883 34.2285C33.1914 34.2285 32.5273 34.4167 31.9961 34.793C31.4648 35.1471 31.0664 35.623 30.8008 36.2207C30.5352 36.8184 30.4023 37.4603 30.4023 38.1465ZM36.7773 8.5957L13.1699 46.3809L7.95703 43.7578L31.5645 5.97266L36.7773 8.5957Z" fill="white"/>
</svg>
