<svg width="56" height="56" viewBox="0 0 56 56" fill="none" xmlns="http://www.w3.org/2000/svg">
<g id="Group 252">
<path id="Vector" d="M29.4808 43.7825C30.9007 44.3464 32.2956 44.9704 33.7405 45.4592C35.349 46.0001 37.0421 46.0603 38.7209 45.94C40.3572 45.823 41.9928 45.6445 43.6148 45.3991C45.3674 45.1347 46.8975 44.3721 48.2024 43.1389C49.4722 41.9388 50.9523 41.1106 52.7272 40.9199C53.6325 40.8212 54.477 40.9875 55.2289 41.5284C56.0863 42.1416 56.2147 43.1551 55.5426 43.9563C55.377 44.153 55.1992 44.3403 54.9821 44.5817C55.1552 44.6614 55.2965 44.7338 55.4432 44.7933C55.853 44.9589 56.0065 45.2246 55.9693 45.6648C55.8976 46.5099 55.4865 47.1705 54.8793 47.7323C53.6792 48.8391 52.3235 49.7268 50.9712 50.6186C49.7596 51.417 48.5682 52.2466 47.3458 53.0282C46.264 53.7171 45.0821 54.0592 43.7913 54.1694C42.3714 54.2905 40.9637 54.5751 39.5512 54.7867C37.3058 55.1248 35.0644 55.4966 32.8135 55.8009C31.7019 55.9516 30.5694 56.1139 29.4524 55.8894C28.7352 55.7542 28.0358 55.5373 27.3678 55.2431C23.5862 53.5123 19.8262 51.7362 16.0513 49.9918C14.6537 49.3461 13.2595 48.6836 11.82 48.1461C11.0762 47.8689 10.2419 47.8236 9.44199 47.7215C8.66984 47.6228 8.2486 47.355 8.08565 46.7229C8.04517 46.525 8.02905 46.3229 8.03764 46.1211C8.03764 42.5513 8.03764 38.9815 8.03764 35.4117C8.03764 34.6065 8.3081 34.2529 9.08161 34.0217C11.2917 33.3601 13.5535 32.8852 15.843 32.6018C18.6402 32.2564 21.4293 32.2307 24.1961 32.9C26.2367 33.3936 28.1386 34.2326 29.9662 35.2278C31.2847 35.9458 32.685 36.2021 34.1428 36.2832C37.1273 36.4502 40.0793 36.8194 42.9583 37.653C43.915 37.9302 44.8414 38.2804 45.5243 39.062C46.22 39.8578 46.4709 40.7123 45.9678 41.7278C45.552 42.5642 45.1307 43.3769 44.2707 43.8488C43.6155 44.2085 42.9184 44.2808 42.1814 44.2024C40.8731 44.0672 39.5614 43.9475 38.249 43.8603C36.3842 43.7365 34.5187 43.6135 32.6512 43.5567C31.5991 43.5249 30.5423 43.6243 29.4875 43.6689L29.4808 43.7825Z" fill="white"/>
<path id="Vector_2" d="M18.7148 18.5991C18.9853 11.5108 22.0611 6.04725 28.1997 2.4024C30.6028 0.975824 33.2444 0.216566 36.043 0.0421319C41.2783 -0.283748 45.8829 1.28007 49.8004 4.75996C52.7274 7.36024 54.6348 10.6015 55.5071 14.4241C56.4226 18.4334 56.0818 22.3474 54.4049 26.1051C52.2852 30.8554 48.7639 34.1642 43.9119 36.0438C43.6956 36.1197 43.4618 36.131 43.2392 36.0762C40.8463 35.4678 38.4189 35.0878 35.9605 34.8647C34.6637 34.7477 33.3499 34.624 32.0936 34.3055C31.0619 34.0446 30.095 33.5131 29.1186 33.0635C27.6987 32.4118 26.293 31.7276 24.7467 31.4111C24.6588 31.3936 24.5702 31.3726 24.4817 31.3631C23.8995 31.305 23.4586 31.0582 23.0726 30.5843C21.1118 28.1767 19.7737 25.477 19.1368 22.4332C18.8756 21.1713 18.7344 19.8875 18.7148 18.5991ZM32.999 21.0208C33.0943 21.0148 33.1599 21.0066 33.2255 21.0066C35.0606 21.0019 36.8956 21.0121 38.73 20.9897C40.1587 20.9722 41.588 20.9343 42.9897 20.6091C44.824 20.1832 46.319 19.2718 47.3014 17.6234C48.3765 15.8189 48.6598 13.8691 48.248 11.8326C47.8612 9.91658 46.8903 8.35749 45.1553 7.37038C43.916 6.66386 42.5319 6.43128 41.1323 6.36232C39.8639 6.29876 38.5907 6.3258 37.3189 6.3231C34.9519 6.31859 32.5854 6.31859 30.2194 6.3231C29.644 6.3231 29.5656 6.39815 29.5642 6.95526C29.5583 10.2677 29.5541 13.5806 29.5514 16.8939V17.9838C29.0436 17.9838 28.5831 17.9791 28.1227 17.9838C27.7576 17.9885 27.6142 18.1332 27.6108 18.4997C27.6061 19.1305 27.6047 19.7613 27.6108 20.3927C27.6149 20.7802 27.7312 20.8931 28.1179 20.8978C28.5872 20.9039 29.0571 20.8978 29.5426 20.8978V24.3405C29.0584 24.3405 28.596 24.3351 28.1382 24.3405C27.744 24.3473 27.6129 24.4818 27.6102 24.8753C27.6061 25.4946 27.6061 26.1141 27.6102 26.7339C27.6102 27.1396 27.7251 27.243 28.1423 27.245C28.6014 27.245 29.0605 27.245 29.5581 27.245C29.5581 27.4019 29.5581 27.5222 29.5581 27.6426C29.5581 28.554 29.5581 29.468 29.5676 30.3781C29.5716 30.8169 29.7028 30.9345 30.1369 30.9365C30.9032 30.9401 31.6695 30.9419 32.4358 30.9419C32.8557 30.9419 32.9916 30.7979 32.9909 30.3659C32.9909 29.4541 32.9898 28.5418 32.9875 27.629C32.9875 27.5101 32.9983 27.3904 33.0051 27.245H42.3947C42.8598 27.245 42.9552 27.1537 42.9586 26.6974C42.9626 26.0997 42.9626 25.5025 42.9586 24.9057C42.9545 24.4595 42.8382 24.3439 42.3967 24.3439C39.3996 24.3407 36.402 24.3389 33.404 24.3385H32.9983L32.999 21.0208Z" fill="white"/>
<path id="Vector_3" d="M0.000300546 40.8326V32.6234C0.000300546 31.808 0.453315 31.3584 1.27888 31.3577C2.56355 31.3577 3.84822 31.3577 5.13289 31.3577C5.96589 31.3577 6.42499 31.81 6.42567 32.6531C6.42567 36.6173 6.42567 40.5813 6.42567 44.545C6.42567 46.0203 6.42567 47.4955 6.42567 48.9708C6.42567 49.8768 6.0139 50.3041 5.11666 50.3095C3.80021 50.3183 2.48377 50.3162 1.16732 50.3095C0.449934 50.3095 0.00368094 49.8409 0.00368094 49.1094C0.000525617 46.3505 -0.000600975 43.5915 0.000300546 40.8326Z" fill="white"/>
<path id="Vector_4" d="M33.0017 17.9054V9.37982C33.5284 9.37982 34.0423 9.37982 34.5568 9.37982C36.5386 9.38523 38.5197 9.37982 40.5008 9.40619C41.0743 9.4085 41.6455 9.47978 42.202 9.61849C43.3588 9.92273 44.1418 10.7084 44.5603 11.8043C45.0823 13.1707 45.0336 14.5412 44.3338 15.8494C43.7929 16.8636 42.8903 17.4268 41.7963 17.6255C40.8902 17.7903 39.9725 17.8834 39.0518 17.9041C37.1167 17.9453 35.1802 17.9169 33.2438 17.9163C33.1762 17.9169 33.1092 17.9102 33.0017 17.9054Z" fill="white"/>
</g>
</svg>
