<svg width="37" height="57" viewBox="0 0 37 57" fill="none" xmlns="http://www.w3.org/2000/svg">
<g id="Group 253">
<path id="Vector" d="M37 30.0276C37 34.9008 37 39.7739 37 44.6471C37 46.9212 35.4092 48.4089 32.952 48.4336C31.9191 48.4436 30.8861 48.4179 29.8531 48.4403C29.367 48.4504 29.1361 48.3103 29.1702 47.8342C29.1963 47.4429 29.1963 47.0504 29.1702 46.6591C29.0819 45.5753 29.3918 44.4957 30.05 43.594C32.7235 39.7302 30.0877 34.7898 25.1319 34.1838C21.5396 33.7379 18.1369 36.1734 17.6581 39.4703C17.3896 41.3445 17.9133 42.9768 19.2161 44.4118C19.4037 44.6087 19.5039 44.8635 19.4968 45.1254C19.4895 46.0407 19.4761 46.9559 19.4968 47.8701C19.5089 48.326 19.2841 48.4403 18.8357 48.438C16.8099 48.428 14.7841 48.438 12.7595 48.438C9.76185 48.438 6.76424 48.438 3.76663 48.438C2.77361 48.4278 1.8244 48.0596 1.1223 47.4122C0.420201 46.7647 0.0210342 45.8896 0.0102946 44.9742C0.000572586 36.1435 -0.00226388 27.3125 0.00178694 18.481C0.00178694 13.5892 0.00178694 8.69737 0.00178694 3.80555C0.00178694 1.46643 1.59862 0.00672706 4.14578 0.0056068L22.4353 0C23.3771 0 23.3795 3.57903e-06 23.3807 0.864849C23.3807 4.07553 23.3746 7.28733 23.3807 10.4991C23.3807 11.4928 23.6238 12.4114 24.4076 13.171C25.2789 14.0156 26.352 14.345 27.5758 14.345H36.1433C36.9757 14.345 36.9793 14.345 36.9793 15.1292C36.9793 20.0957 36.9793 25.0622 36.9793 30.0287L37 30.0276ZM18.51 17.9623H9.16111C8.24968 17.9623 7.33824 17.9758 6.42923 17.9623C6.04886 17.9623 5.85321 18.0744 5.88723 18.4485C5.9006 18.5964 5.88723 18.7465 5.88723 18.8966C5.88723 19.7133 5.88723 19.7156 6.80474 19.7156H27.5089C28.5212 19.7156 29.5323 19.7032 30.547 19.7156C30.9566 19.7212 31.1547 19.5912 31.1231 19.198C31.1121 19.086 31.1231 18.9739 31.1231 18.8619C31.1231 17.9657 31.1231 17.9579 30.1703 17.9579C26.2799 17.9601 22.3931 17.9616 18.51 17.9623ZM18.5003 23.3396C14.5532 23.3396 10.6064 23.3396 6.66013 23.3396C6.41708 23.3396 6.05251 23.2276 5.95772 23.5166C5.80122 23.9638 5.80122 24.4451 5.95772 24.8923C6.10112 25.2598 6.56534 25.0828 6.88738 25.0839C14.6795 25.0906 22.4713 25.0906 30.2627 25.0839C31.1133 25.0839 31.1133 25.0839 31.1194 24.2739C31.1194 24.2 31.1194 24.1249 31.1194 24.0499C31.1194 23.334 31.1194 23.3374 30.3404 23.3374L18.5003 23.3396ZM18.5003 28.7169H13.1544C10.9901 28.7169 8.82327 28.7359 6.65891 28.7034C6.0282 28.6945 5.80824 28.8972 5.88723 29.4473C5.8939 29.5406 5.8939 29.6341 5.88723 29.7274C5.88723 30.4611 5.88723 30.4645 6.70024 30.4645H30.0123C31.1146 30.4645 31.1146 30.4645 31.1206 29.4798C31.1206 28.7102 31.1206 28.7146 30.2773 28.7146L18.5003 28.7169ZM12.6063 8.95652V8.96212C14.5289 8.96212 16.4514 8.96212 18.3739 8.96212C19.4579 8.96212 19.4579 8.97109 19.453 7.96173C19.453 7.20555 19.453 7.20667 18.5939 7.20667C14.748 7.20667 10.9026 7.20929 7.05751 7.21451C5.773 7.21451 5.91275 7.07 5.87386 8.29109C5.85685 8.79857 6.02942 8.97333 6.59451 8.96325C8.59845 8.93972 10.6024 8.95652 12.6063 8.95652ZM12.6732 14.3405V14.3338C14.6953 14.3338 16.7175 14.317 18.7397 14.345C19.3145 14.3528 19.5138 14.1568 19.4543 13.6616C19.4421 13.5496 19.4543 13.4376 19.4543 13.3256C19.4543 12.5862 19.4543 12.5851 18.6413 12.5851C14.7784 12.5851 10.9155 12.5881 7.05266 12.594C5.78637 12.594 5.90789 12.4372 5.87629 13.6728C5.86293 14.1792 6.04521 14.3573 6.60544 14.3506C8.62761 14.3282 10.651 14.3405 12.6683 14.3405H12.6732Z" fill="white"/>
<path id="Vector_2" d="M25.497 0.12175C26.34 1.02328 27.1826 1.92481 28.0248 2.82635C30.1712 5.12187 32.2471 7.47262 34.4445 9.7287C35.2146 10.5175 35.8876 11.3943 36.6771 12.1741C36.7804 12.2755 36.9432 12.3995 36.8508 12.5606C36.7767 12.6947 36.5994 12.6508 36.4634 12.6519C33.3464 12.6519 30.2295 12.6632 27.1101 12.644C26.0885 12.6373 25.3391 11.8698 25.3257 10.8601C25.3075 9.50782 25.3196 8.15553 25.3196 6.80323C25.3196 4.8131 25.3196 2.82221 25.3196 0.830577V0.166822L25.497 0.12175Z" fill="white"/>
<g id="Group 255">
<path id="Vector_3" d="M29.2489 40.8592C29.2489 43.5928 27.1287 45.6923 24.372 45.6923C21.5885 45.6923 19.4671 43.5818 19.4732 40.8239C19.4732 38.0112 21.5946 35.9628 24.4134 35.9056C26.8975 35.8508 29.3804 38.1195 29.2489 40.8592Z" fill="white"/>
</g>
<path id="Vector_4" d="M21.4207 51.7596C21.4207 50.3623 21.4268 48.9602 21.4207 47.5666C21.4207 47.1358 21.5266 46.9727 21.9927 47.1443C23.5057 47.7091 25.1709 47.7138 26.6871 47.1577C27.2324 46.9654 27.3127 47.1577 27.3115 47.6348C27.303 50.3696 27.3115 53.1045 27.3115 55.8393C27.3115 56.0109 27.393 56.2507 27.2093 56.3419C27.006 56.4442 26.9135 56.191 26.776 56.09C25.9982 55.5253 25.4481 54.7317 24.7677 54.0672C24.4915 53.797 24.3418 53.7921 24.0375 54.0599C23.3157 54.6842 22.7899 55.5021 22.0049 56.0584C21.8503 56.1667 21.7457 56.4576 21.5278 56.3371C21.344 56.2361 21.4341 55.9646 21.4329 55.7699C21.4256 54.4311 21.4329 53.0923 21.4329 51.7535L21.4207 51.7596Z" fill="white"/>
</g>
</svg>
