<svg width="34" height="66" viewBox="0 0 34 66" fill="none" xmlns="http://www.w3.org/2000/svg">
<g id="Group 253">
<path id="Vector" d="M33.0661 35.1869C33.0661 40.7577 33.0661 46.3284 33.0661 51.8991C33.0661 54.4988 31.6445 56.1995 29.4485 56.2276C28.5254 56.2392 27.6023 56.2097 26.6791 56.2353C26.2447 56.2469 26.0384 56.0868 26.0688 55.5425C26.0921 55.0951 26.0921 54.6465 26.0688 54.1991C25.9899 52.9602 26.2668 51.7261 26.8551 50.6953C29.2443 46.2784 26.8887 40.6309 22.4598 39.9381C19.2495 39.4284 16.2086 42.2125 15.7807 45.9813C15.5407 48.1238 16.0088 49.9897 17.173 51.6302C17.3406 51.8552 17.4302 52.1465 17.4239 52.446C17.4174 53.4922 17.4054 54.5385 17.4239 55.5835C17.4347 56.1047 17.2338 56.2353 16.8331 56.2328C15.0226 56.2212 13.2122 56.2328 11.4029 56.2328C8.72396 56.2328 6.04506 56.2328 3.36615 56.2328C2.47871 56.2211 1.63043 55.8001 1.00298 55.06C0.375525 54.3199 0.0187978 53.3195 0.00920004 52.2731C0.000511708 42.1783 -0.00202318 32.0831 0.00159695 21.9875C0.00159695 16.3954 0.00159695 10.8033 0.00159695 5.21126C0.00159695 2.53731 1.42866 0.868652 3.705 0.867371L20.0499 0.860962C20.8916 0.860962 20.8938 0.860966 20.8949 1.84961C20.8949 5.51989 20.8894 9.19145 20.8949 12.863C20.8949 13.9989 21.1121 15.049 21.8126 15.9173C22.5913 16.8829 23.5502 17.2594 24.6439 17.2594H32.3005C33.0444 17.2594 33.0477 17.2594 33.0477 18.1559C33.0477 23.8333 33.0477 29.5108 33.0477 35.1882L33.0661 35.1869ZM16.542 21.3946H8.18709C7.37256 21.3946 6.55803 21.4099 5.74567 21.3946C5.40574 21.3946 5.23089 21.5226 5.2613 21.9504C5.27324 22.1194 5.2613 22.291 5.2613 22.4626C5.2613 23.3962 5.2613 23.3987 6.08126 23.3987H24.5841C25.4888 23.3987 26.3924 23.3847 27.2992 23.3987C27.6652 23.4051 27.8423 23.2566 27.814 22.8071C27.8043 22.679 27.814 22.551 27.814 22.4229C27.814 21.3984 27.814 21.3894 26.9626 21.3894C23.4858 21.392 20.0123 21.3937 16.542 21.3946ZM16.5333 27.5416C13.0059 27.5416 9.47876 27.5416 5.95202 27.5416C5.73481 27.5416 5.409 27.4135 5.32429 27.7439C5.18443 28.2551 5.18443 28.8053 5.32429 29.3165C5.45244 29.7366 5.86731 29.5342 6.15511 29.5355C13.1188 29.5432 20.0821 29.5432 27.0451 29.5355C27.8053 29.5355 27.8053 29.5355 27.8108 28.6096C27.8108 28.5251 27.8108 28.4393 27.8108 28.3535C27.8108 27.5352 27.8108 27.539 27.1146 27.539L16.5333 27.5416ZM16.5333 33.6886H11.7558C9.82158 33.6886 7.88517 33.7104 5.95093 33.6732C5.38728 33.663 5.19071 33.8948 5.2613 34.5236C5.26726 34.6302 5.26726 34.7371 5.2613 34.8437C5.2613 35.6825 5.2613 35.6864 5.98786 35.6864H26.8214C27.8064 35.6864 27.8064 35.6864 27.8119 34.5607C27.8119 33.6809 27.8119 33.686 27.0581 33.686L16.5333 33.6886ZM11.266 11.0996V11.106C12.9841 11.106 14.7023 11.106 16.4204 11.106C17.3891 11.106 17.3891 11.1162 17.3848 9.96239C17.3848 9.09796 17.3848 9.09925 16.6169 9.09925C13.18 9.09925 9.74339 9.10223 6.30715 9.10821C5.15921 9.10821 5.2841 8.94301 5.24935 10.3389C5.23415 10.919 5.38836 11.1188 5.89337 11.1073C7.68425 11.0804 9.47514 11.0996 11.266 11.0996ZM11.3258 17.2543V17.2466C13.1329 17.2466 14.9401 17.2274 16.7473 17.2594C17.261 17.2684 17.4391 17.0443 17.3859 16.4782C17.375 16.3502 17.3859 16.2221 17.3859 16.094C17.3859 15.2488 17.3859 15.2475 16.6593 15.2475C13.2071 15.2475 9.75497 15.251 6.30281 15.2578C5.17116 15.2578 5.27976 15.0785 5.25152 16.491C5.23957 17.0699 5.40248 17.2735 5.90315 17.2658C7.71032 17.2402 9.51858 17.2543 11.3214 17.2543H11.3258Z" fill="white"/>
<path id="Vector_2" d="M22.7858 1.00012C23.5392 2.03071 24.2922 3.06129 25.0449 4.09187C26.963 6.716 28.8183 9.40324 30.782 11.9823C31.4703 12.884 32.0717 13.8863 32.7773 14.7777C32.8696 14.8937 33.015 15.0354 32.9325 15.2196C32.8663 15.3729 32.7078 15.3227 32.5862 15.3239C29.8007 15.3239 27.0151 15.3368 24.2274 15.3149C23.3145 15.3072 22.6447 14.4299 22.6328 13.2757C22.6165 11.7298 22.6273 10.1839 22.6273 8.63803C22.6273 6.36302 22.6273 4.08715 22.6273 1.81042V1.05165L22.7858 1.00012Z" fill="white"/>
<g id="Group 255">
<path id="Vector_3" d="M26.139 47.569C26.139 50.6939 24.2442 53.0939 21.7806 53.0939C19.293 53.0939 17.3972 50.6814 17.4026 47.5286C17.4026 44.3133 19.2985 41.9717 21.8176 41.9063C24.0376 41.8437 26.2565 44.4371 26.139 47.569Z" fill="white"/>
</g>
<path id="Vector_4" d="M19.1432 60.0297C19.1432 58.4325 19.1486 56.8296 19.1432 55.2366C19.1432 54.744 19.2378 54.5576 19.6544 54.7538C21.0065 55.3994 22.4946 55.4048 23.8496 54.7691C24.3369 54.5493 24.4087 54.7691 24.4076 55.3145C24.4 58.4408 24.4076 61.5671 24.4076 64.6935C24.4076 64.8896 24.4805 65.1637 24.3163 65.2681C24.1346 65.3849 24.0519 65.0955 23.929 64.9801C23.234 64.3345 22.7424 63.4273 22.1343 62.6677C21.8874 62.3588 21.7536 62.3532 21.4817 62.6593C20.8367 63.3731 20.3668 64.308 19.6652 64.9439C19.5271 65.0677 19.4336 65.4002 19.2389 65.2625C19.0746 65.147 19.1551 64.8368 19.154 64.6141C19.1475 63.0837 19.154 61.5532 19.154 60.0228L19.1432 60.0297Z" fill="white"/>
</g>
</svg>
