<svg width="43" height="43" viewBox="0 0 43 43" fill="none" xmlns="http://www.w3.org/2000/svg">
<path id="&#208;&#183;&#208;&#189;&#208;&#176;&#209;&#135;&#209;&#145;&#208;&#186;" d="M20.0034 0H23.0256C23.7184 0.0923759 24.4087 0.161034 25.0916 0.282121C29.0438 0.977437 32.5603 2.61149 35.5775 5.25918C39.3749 8.58597 41.7617 12.7316 42.6655 17.71C42.8015 18.459 42.8889 19.2242 43 19.9807V23.0028C42.9076 23.6782 42.8415 24.3585 42.7216 25.0289C41.7467 30.4815 39.1277 34.988 34.7561 38.3859C29.4794 42.4929 23.4962 43.8648 16.9562 42.4817C11.3962 41.3083 6.99088 38.2798 3.77645 33.5999C0.422205 28.7114 -0.676319 23.2925 0.39599 17.4765C1.26982 12.7329 3.57422 8.73826 7.15316 5.51384C10.1207 2.80104 13.8072 1.00109 17.7714 0.329557C18.5117 0.20098 19.2594 0.108604 20.0034 0ZM23.2865 16.0097C23.2865 14.2746 23.2865 12.5407 23.2865 10.8055C23.2865 9.7469 22.5375 8.97669 21.5201 8.97544C20.5027 8.97419 19.745 9.73692 19.7437 10.7955C19.7437 14.6412 19.7437 18.4881 19.7437 22.3362C19.7385 22.588 19.7855 22.8381 19.8818 23.0708C19.978 23.3035 20.1214 23.5137 20.303 23.6882C23.2615 26.6442 26.2192 29.6019 29.1761 32.5613C29.4004 32.8051 29.6897 32.9797 30.01 33.0644C30.3303 33.1491 30.6681 33.1404 30.9836 33.0394C31.6877 32.8334 32.1071 32.3266 32.232 31.6025C32.3443 30.9372 32.0672 30.4104 31.6078 29.9498C28.9247 27.2725 26.2425 24.5936 23.5611 21.9131C23.47 21.8302 23.3981 21.7283 23.3507 21.6147C23.3032 21.501 23.2813 21.3783 23.2865 21.2552C23.2915 19.5075 23.2865 17.7586 23.2865 16.0097Z" fill="#2DA3DD"/>
</svg>
